<?xml version="1.0" standalone="no"?>
<!DOCTYPE svg PUBLIC "-//W3C//DTD SVG 20010904//EN"
 "http://www.w3.org/TR/2001/REC-SVG-20010904/DTD/svg10.dtd">
<svg version="1.0" xmlns="http://www.w3.org/2000/svg"
 width="500.000000pt" height="500.000000pt" viewBox="0 0 500.000000 500.000000"
 preserveAspectRatio="xMidYMid meet">
<metadata>
Created by potrace 1.14, written by Peter Selinger 2001-2017
</metadata>
<g transform="translate(0.000000,500.000000) scale(0.100000,-0.100000)"
fill="#000000" stroke="none">
<path d="M813 4851 c-78 -57 -73 39 -73 -1347 l0 -1235 58 -26 c143 -64 415
-89 642 -59 69 9 148 22 175 30 148 41 203 58 230 71 17 7 55 23 87 35 103 38
378 188 553 300 93 60 278 174 300 185 20 10 20 21 23 623 2 499 0 612 -11
612 -7 0 -35 11 -63 24 -87 42 -218 102 -254 116 -19 7 -42 19 -51 27 -8 7
-21 13 -27 13 -16 0 -86 33 -90 43 -2 4 -8 7 -13 7 -5 0 -60 23 -122 51 -169
76 -193 87 -239 108 -58 26 -257 117 -391 180 -34 16 -100 45 -147 66 -47 20
-112 50 -145 65 -33 15 -80 37 -105 48 -25 11 -80 36 -122 56 -100 47 -157 49
-215 7z"/>
<path d="M3790 2849 c-25 -5 -81 -16 -125 -25 -242 -48 -523 -169 -835 -359
-123 -75 -345 -213 -415 -257 -33 -21 -76 -46 -95 -56 -19 -11 -69 -38 -110
-61 -213 -120 -459 -213 -680 -258 -184 -37 -416 -39 -560 -4 -102 24 -179 49
-194 63 -6 4 -19 8 -29 8 -18 0 -19 -6 -15 -76 8 -122 42 -157 243 -245 33
-15 137 -62 230 -104 94 -42 195 -88 225 -101 30 -14 69 -32 85 -39 28 -13
468 -213 563 -256 23 -10 61 -28 85 -38 63 -29 506 -230 552 -251 73 -34 479
-217 530 -240 74 -33 484 -219 530 -240 166 -78 276 -123 308 -128 61 -8 129
29 161 88 l26 48 -2 1258 -3 1258 -65 12 c-75 15 -343 16 -410 3z"/>
</g>
</svg>
